<?xml version="1.0" encoding="UTF-8"?>
<svg version="1.1" xmlns="http://www.w3.org/2000/svg" width="244" height="100">
<path d="M0 0 C80.52 0 161.04 0 244 0 C244 33 244 66 244 100 C163.48 100 82.96 100 0 100 C0 67 0 34 0 0 Z " fill="#FCFCFC" transform="translate(0,0)"/>
<path d="M0 0 C4 1 4 1 6.1875 3.8125 C11.45870553 13.0825511 9.62105329 26.05403886 7 36 C9.64 35.67 12.28 35.34 15 35 C14.34 30.05 13.68 25.1 13 20 C23.5 17 23.5 17 28 17 C30.29612756 26.41002278 30.29612756 26.41002278 30 31 C33.96 30.505 33.96 30.505 38 30 C40.09729941 34.60566951 40.3121337 38.57576384 40.4609375 43.57421875 C40.63882813 44.37472656 40.81671875 45.17523438 41 46 C42.88950269 47.18434886 42.88950269 47.18434886 45 48 C48.03634184 52.55451276 49.70338653 56.70549499 51 62 C47.98968256 62.93423645 47.13349732 63.04449911 44 62 C41.46300059 65.69891312 40.61451743 68.2320629 40.5234375 72.703125 C40.4925 73.7653125 40.4615625 74.8275 40.4296875 75.921875 C40.41164062 77.02015625 40.39359375 78.1184375 40.375 79.25 C40.32424068 81.44280278 40.26976339 83.63552379 40.2109375 85.828125 C40.18459229 87.2807373 40.18459229 87.2807373 40.15771484 88.76269531 C40 91 40 91 39 92 C36.32941149 92.14115161 33.67567762 92.04247107 31 92 C30.94392578 90.66195312 30.94392578 90.66195312 30.88671875 89.296875 C30.82097656 88.12640625 30.75523438 86.9559375 30.6875 85.75 C30.62949219 84.58984375 30.57148437 83.4296875 30.51171875 82.234375 C29.96157676 78.75714169 29.42061066 77.48725743 27 75 C24.68909272 74.45086421 24.68909272 74.45086421 22.11328125 74.609375 C21.17548828 74.62226562 20.23769531 74.63515625 19.27148438 74.6484375 C18.29501953 74.68195313 17.31855469 74.71546875 16.3125 74.75 C15.32443359 74.76804687 14.33636719 74.78609375 13.31835938 74.8046875 C10.87793158 74.85184553 8.43945231 74.91763958 6 75 C6.01160156 76.07121094 6.02320312 77.14242187 6.03515625 78.24609375 C6.04453299 79.64322743 6.05363331 81.04036299 6.0625 82.4375 C6.07087891 83.14455078 6.07925781 83.85160156 6.08789062 84.58007812 C6.09653588 86.38693559 6.05220011 88.19387603 6 90 C5 91 5 91 3.15234375 91.09765625 C1.1015625 91.06510417 -0.94921875 91.03255208 -3 91 C-3.03738281 90.14277344 -3.07476562 89.28554687 -3.11328125 88.40234375 C-3.60910205 77.93076259 -3.60910205 77.93076259 -8.75390625 69.0390625 C-13.55924294 63.6609685 -15.01560223 59.86568186 -14.640625 52.61328125 C-13.64676239 47.00765373 -11.62604293 41.94882169 -9.41015625 36.7265625 C-7.99231173 32.97968252 -7.40316197 29.94996661 -7 26 C-9.97 26 -12.94 26 -16 26 C-16.75 22.75 -16.75 22.75 -17 19 C-14.21025523 14.56176969 -8.7809094 12.73515631 -4 11 C-3.34 11 -2.68 11 -2 11 C-1.34 7.37 -0.68 3.74 0 0 Z " fill="#0C0C0A" transform="translate(21,4)"/>
<path d="M0 0 C0.66 0 1.32 0 2 0 C5.98588651 10.41729701 4.33876238 21.33514232 1.65625 31.87890625 C0.43899292 37.66812295 1.08241492 42.12560355 2.8125 47.75 C3.14894531 48.87921875 3.48539063 50.0084375 3.83203125 51.171875 C4.8050614 54.27254416 4.8050614 54.27254416 8 56 C15.25889123 56.70217918 22.77166447 57.15222369 29 53 C31.30837395 49.46049328 32.38763942 46.16405192 33 42 C36.3125 42.1875 36.3125 42.1875 40 43 C42 45.4375 42 45.4375 43 48 C42.505 48.99 42.505 48.99 42 50 C41.34 49.34 40.68 48.68 40 48 C37.93125966 47.3574765 37.93125966 47.3574765 36 47 C36.33 47.53625 36.66 48.0725 37 48.625 C38.25941162 51.6161026 38.26855835 53.77729983 38 57 C37.67338379 57.61456055 37.34676758 58.22912109 37.01025391 58.86230469 C35.79849174 61.42639109 35.68458675 63.3751798 35.5859375 66.203125 C35.54726563 67.1828125 35.50859375 68.1625 35.46875 69.171875 C35.42234375 70.69554688 35.42234375 70.69554688 35.375 72.25 C35.33632813 73.28125 35.29765625 74.3125 35.2578125 75.375 C35.16368326 77.9164894 35.07805021 80.45797433 35 83 C34.01 83 33.02 83 32 83 C31.91363281 82.11957031 31.82726563 81.23914063 31.73828125 80.33203125 C31.12948572 72.93698695 31.12948572 72.93698695 27.6875 66.625 C24.32732955 64.59326903 23.72269368 65.19116962 20 66 C17.48050914 66.09220957 14.95867269 66.13000729 12.4375 66.125 C11.13683594 66.12757812 9.83617187 66.13015625 8.49609375 66.1328125 C5 66 5 66 1 65 C0.67 70.61 0.34 76.22 0 82 C-0.66 82 -1.32 82 -2 82 C-2.07734375 80.56720703 -2.07734375 80.56720703 -2.15625 79.10546875 C-3.02215269 69.23614609 -5.42000778 63.67906784 -12 56 C-14.35446963 51.29106074 -13.80182973 45.64445257 -12.30859375 40.71972656 C-11.11750568 37.35343394 -9.84583943 34.03027457 -8.49023438 30.72680664 C-6.69880093 26.29702225 -5.56005772 22.87864563 -6 18 C-9.3 17.67 -12.6 17.34 -16 17 C-15.67 15.68 -15.34 14.36 -15 13 C-11.76498902 11.07219754 -8.41963042 9.55881892 -5.00390625 7.9765625 C-1.44276495 5.63334078 -0.87020876 4.09171005 0 0 Z " fill="#F1F1F1" transform="translate(23,10)"/>
<path d="M0 0 C3.63 0 7.26 0 11 0 C11.33 0.99 11.66 1.98 12 3 C12.350625 2.484375 12.70125 1.96875 13.0625 1.4375 C15 0 15 0 18.4375 0.125 C21.8009077 0.95110014 23.49248642 1.69308751 26 4 C26.515625 3.319375 27.03125 2.63875 27.5625 1.9375 C30 0 30 0 33.5625 -0.0625 C37 1 37 1 38.6965332 3.22143555 C40.12858679 6.27410493 40.34910014 8.1703584 40.29296875 11.51953125 C40.2784668 13.0519043 40.2784668 13.0519043 40.26367188 14.61523438 C40.23853516 15.67033203 40.21339844 16.72542969 40.1875 17.8125 C40.16719727 19.42415039 40.16719727 19.42415039 40.14648438 21.06835938 C40.11122976 23.71245541 40.05742566 26.35629256 40 29 C36.7 29 33.4 29 30 29 C29.67 23.06 29.34 17.12 29 11 C28.01 10.67 27.02 10.34 26 10 C26 16.27 26 22.54 26 29 C22.37 29 18.74 29 15 29 C15 22.73 15 16.46 15 10 C14.01 10.33 13.02 10.66 12 11 C11.67 16.94 11.34 22.88 11 29 C7.37 29 3.74 29 0 29 C0 19.43 0 9.86 0 0 Z " fill="#2A2A2A" transform="translate(168,43)"/>
<path d="M0 0 C0.89214652 2.67643957 1.13540211 4.25384378 1.125 7 C1.12886719 8.0209375 1.12886719 8.0209375 1.1328125 9.0625 C1 11 1 11 0 14 C3.3 14 6.6 14 10 14 C9.67 14.99 9.34 15.98 9 17 C8.67 17 8.34 17 8 17 C8.185625 18.134375 8.37125 19.26875 8.5625 20.4375 C8.706875 21.613125 8.85125 22.78875 9 24 C8 25 8 25 4.9375 25.0625 C3.968125 25.041875 2.99875 25.02125 2 25 C1.01 22.03 0.02 19.06 -1 16 C-0.67 19.96 -0.34 23.92 0 28 C-0.66 28 -1.32 28 -2 28 C-2.33 25.69 -2.66 23.38 -3 21 C-3.66 21 -4.32 21 -5 21 C-5 23.31 -5 25.62 -5 28 C-5.99 28.33 -6.98 28.66 -8 29 C-4.86501708 30.85776765 -2.62528568 31.20140476 1 31 C0.0625 32.9375 0.0625 32.9375 -2 35 C-4.32705633 35.49439292 -6.56759373 35.68779274 -8.94140625 35.82421875 C-11.06333296 35.87771033 -11.06333296 35.87771033 -13 37 C-11.41705218 37.05437607 -9.83355744 37.09296271 -8.25 37.125 C-6.92742188 37.15980469 -6.92742188 37.15980469 -5.578125 37.1953125 C-2.83634728 36.98760207 -1.28409305 36.50913291 1 35 C2.28254644 32.46229997 2.28254644 32.46229997 3 30 C3.99 30 4.98 30 6 30 C5.875 32.75 5.875 32.75 5 36 C-0.62640873 40.62615829 -5.56942242 41.37765555 -12.65625 41.2734375 C-15 41 -15 41 -17.5 39.4375 C-19.35827882 36.41779692 -20.07024721 33.40909355 -21 30 C-21.51949219 29.54367188 -22.03898437 29.08734375 -22.57421875 28.6171875 C-24 27 -24 27 -24.109375 24.51171875 C-23.99078125 23.57972656 -23.8721875 22.64773437 -23.75 21.6875 C-23.57404297 20.22957031 -23.57404297 20.22957031 -23.39453125 18.7421875 C-22.97390891 15.81865404 -22.54912198 12.90250191 -22 10 C-20 13 -20 13 -20 16 C-18.5199159 15.88637738 -17.04089926 15.75877092 -15.5625 15.625 C-14.73878906 15.55539063 -13.91507813 15.48578125 -13.06640625 15.4140625 C-12.04353516 15.20910156 -12.04353516 15.20910156 -11 15 C-9.67770811 12.35541621 -9.90322806 10.32238699 -9.9375 7.375 C-9.95103516 5.87066406 -9.95103516 5.87066406 -9.96484375 4.3359375 C-9.97644531 3.56507812 -9.98804688 2.79421875 -10 2 C-10.66 1.67 -11.32 1.34 -12 1 C-10.56274129 0.83126522 -9.12518162 0.66509263 -7.6875 0.5 C-6.48673828 0.36078125 -6.48673828 0.36078125 -5.26171875 0.21875 C-3 0 -3 0 0 0 Z " fill="#14180E" transform="translate(47,24)"/>
<path d="M0 0 C6.46153846 0.46153846 6.46153846 0.46153846 9 3 C9.33 2.34 9.66 1.68 10 1 C13.3 1 16.6 1 20 1 C20 9.91 20 18.82 20 28 C17.03 28 14.06 28 11 28 C11 27.01 11 26.02 11 25 C10.34 25 9.68 25 9 25 C8.67 25.99 8.34 26.98 8 28 C5.12529507 29.43735246 3.18105412 29.38172649 0 29 C-4.44741791 24.55258209 -5.16528668 20.80803705 -5.25 14.6875 C-5.20885483 8.52943943 -4.46014494 4.46014494 0 0 Z " fill="#050505" transform="translate(218,43)"/>
<path d="M0 0 C4.33833918 2.25259919 7.20287362 4.4073437 9 9 C9.72640915 15.0231425 9.41371229 19.81621467 6 25 C3.58152756 27.92232087 1.50941356 28.82091704 -2.3046875 29.2734375 C-9.26852743 29.54860443 -9.26852743 29.54860443 -13 26.75 C-17.08661512 21.13090421 -17.70666377 16.88181792 -17 10 C-15.46375344 5.77532196 -13.8796118 3.30351951 -10 1 C-6.38069302 -0.20643566 -3.80768995 -0.32268559 0 0 Z " fill="#090909" transform="translate(124,43)"/>
<path d="M0 0 C1.63001953 0.02707031 1.63001953 0.02707031 3.29296875 0.0546875 C4.54013672 0.08949219 4.54013672 0.08949219 5.8125 0.125 C5.8125 3.755 5.8125 7.385 5.8125 11.125 C4.74 10.8775 3.6675 10.63 2.5625 10.375 C-1.12859028 9.73159765 -1.12859028 9.73159765 -3.3984375 11.69921875 C-5.73290218 14.86450819 -5.66004082 16.79030101 -5.5625 20.6875 C-5.54960938 21.82316406 -5.53671875 22.95882812 -5.5234375 24.12890625 C-5.39926544 27.304096 -5.39926544 27.304096 -3.1875 30.125 C-0.98024927 30.48862818 -0.98024927 30.48862818 1.4375 30.3125 C2.25476563 30.28542969 3.07203125 30.25835937 3.9140625 30.23046875 C4.85378906 30.17826172 4.85378906 30.17826172 5.8125 30.125 C5.83938151 31.77074566 5.85884123 33.41661413 5.875 35.0625 C5.88660156 35.97902344 5.89820312 36.89554688 5.91015625 37.83984375 C5.8125 40.125 5.8125 40.125 4.8125 41.125 C0.0046626 41.72408384 -4.94475479 42.14691173 -9.43359375 40.1015625 C-14.16234984 36.4202513 -16.20197366 31.94937191 -17.1875 26.125 C-17.83410146 19.13077572 -17.80846934 13.24318957 -14.1875 7.125 C-9.67761922 2.05138412 -6.83623987 -0.14701591 0 0 Z " fill="#060606" transform="translate(97.1875,30.875)"/>
<path d="M0 0 C4 1 4 1 6.1875 3.8125 C11.45870553 13.0825511 9.62105329 26.05403886 7 36 C4.85331773 32.77997659 4.76463936 32.012832 4.83984375 28.32421875 C4.85080078 27.41349609 4.86175781 26.50277344 4.87304688 25.56445312 C4.89431641 24.61505859 4.91558594 23.66566406 4.9375 22.6875 C5.12526177 14.29841059 5.12526177 14.29841059 4 6 C3.34 6 2.68 6 2 6 C1.9071875 7.3921875 1.9071875 7.3921875 1.8125 8.8125 C1 12 1 12 -1 13.5625 C-1.99 14.036875 -2.98 14.51125 -4 15 C-5.59049098 15.81958974 -7.17341607 16.6539669 -8.75 17.5 C-9.52859375 17.9021875 -10.3071875 18.304375 -11.109375 18.71875 C-13.3159269 19.93456102 -13.3159269 19.93456102 -14 23 C-13.28972656 22.98839844 -12.57945313 22.97679688 -11.84765625 22.96484375 C-10.92855469 22.95582031 -10.00945313 22.94679688 -9.0625 22.9375 C-8.14597656 22.92589844 -7.22945312 22.91429688 -6.28515625 22.90234375 C-4 23 -4 23 -3 24 C-3.10979212 30.25815112 -4.74590437 35.15508547 -7.0625 40.875 C-9.60289752 47.27483327 -11.40811955 53.04364871 -10 60 C-8.42935224 63.31434821 -8.42935224 63.31434821 -6 66 C-5.09158177 67.1989008 -4.19599971 68.40761959 -3.3125 69.625 C-2.89613281 70.17414063 -2.47976562 70.72328125 -2.05078125 71.2890625 C0.2001411 74.95413309 0.11269015 78.53402745 0.0625 82.75 C0.05347656 83.73484375 0.04445313 84.7196875 0.03515625 85.734375 C0.02355469 86.48203125 0.01195313 87.2296875 0 88 C0.66 88 1.32 88 2 88 C2 82.39 2 76.78 2 71 C3.485 70.505 3.485 70.505 5 70 C5.66 70.66 6.32 71.32 7 72 C6.67 72.33 6.34 72.66 6 73 C6.66 73.66 7.32 74.32 8 75 C7.34 75 6.68 75 6 75 C6.01160156 76.07121094 6.02320312 77.14242187 6.03515625 78.24609375 C6.04453299 79.64322743 6.05363331 81.04036299 6.0625 82.4375 C6.07087891 83.14455078 6.07925781 83.85160156 6.08789062 84.58007812 C6.09653588 86.38693559 6.05220011 88.19387603 6 90 C5 91 5 91 3.15234375 91.09765625 C1.1015625 91.06510417 -0.94921875 91.03255208 -3 91 C-3.03738281 90.14277344 -3.07476562 89.28554687 -3.11328125 88.40234375 C-3.60910205 77.93076259 -3.60910205 77.93076259 -8.75390625 69.0390625 C-13.55924294 63.6609685 -15.01560223 59.86568186 -14.640625 52.61328125 C-13.64676239 47.00765373 -11.62604293 41.94882169 -9.41015625 36.7265625 C-7.99231173 32.97968252 -7.40316197 29.94996661 -7 26 C-9.97 26 -12.94 26 -16 26 C-16.75 22.75 -16.75 22.75 -17 19 C-14.21025523 14.56176969 -8.7809094 12.73515631 -4 11 C-3.34 11 -2.68 11 -2 11 C-1.34 7.37 -0.68 3.74 0 0 Z " fill="#101010" transform="translate(21,4)"/>
<path d="M0 0 C3.63 0 7.26 0 11 0 C11 14.85 11 29.7 11 45 C7.37 45 3.74 45 0 45 C0 30.15 0 15.3 0 0 Z " fill="#3C3C3C" transform="translate(137,27)"/>
<path d="M0 0 C2 3 2 3 2 6 C3.98 6 5.96 6 8 6 C8.33 6.66 8.66 7.32 9 8 C8.01 8 7.02 8 6 8 C6.33 9.98 6.66 11.96 7 14 C7.33 12.68 7.66 11.36 8 10 C8.66 10 9.32 10 10 10 C10.061875 11.093125 10.12375 12.18625 10.1875 13.3125 C10.61146835 17.11682546 10.61146835 17.11682546 13.4375 18.875 C14.283125 19.24625 15.12875 19.6175 16 20 C16.66 20.33 17.32 20.66 18 21 C19.66619446 21.0396713 21.33391013 21.04384447 23 21 C22.0625 22.9375 22.0625 22.9375 20 25 C17.67294367 25.49439292 15.43240627 25.68779274 13.05859375 25.82421875 C10.93666704 25.87771033 10.93666704 25.87771033 9 27 C10.58294782 27.05437607 12.16644256 27.09296271 13.75 27.125 C14.63171875 27.14820312 15.5134375 27.17140625 16.421875 27.1953125 C19.16365272 26.98760207 20.71590695 26.50913291 23 25 C24.28254644 22.46229997 24.28254644 22.46229997 25 20 C25.99 20 26.98 20 28 20 C27.875 22.75 27.875 22.75 27 26 C21.37359127 30.62615829 16.43057758 31.37765555 9.34375 31.2734375 C7 31 7 31 4.5 29.4375 C2.64172118 26.41779692 1.92975279 23.40909355 1 20 C0.48050781 19.54367188 -0.03898437 19.08734375 -0.57421875 18.6171875 C-2 17 -2 17 -2.109375 14.51171875 C-1.99078125 13.57972656 -1.8721875 12.64773437 -1.75 11.6875 C-1.63269531 10.71554688 -1.51539062 9.74359375 -1.39453125 8.7421875 C-0.97390891 5.81865404 -0.54912198 2.90250191 0 0 Z " fill="#111212" transform="translate(25,34)"/>
<path d="M0 0 C3.375 1.0625 3.375 1.0625 5.06762695 3.28393555 C6.50440684 6.3375288 6.72414388 8.23024846 6.66796875 11.58203125 C6.65830078 12.60361328 6.64863281 13.62519531 6.63867188 14.67773438 C6.61353516 15.73283203 6.58839844 16.78792969 6.5625 17.875 C6.54219727 19.48665039 6.54219727 19.48665039 6.52148438 21.13085938 C6.48622976 23.77495541 6.43242566 26.41879256 6.375 29.0625 C3.075 29.0625 -0.225 29.0625 -3.625 29.0625 C-3.63917969 27.82113281 -3.65335938 26.57976562 -3.66796875 25.30078125 C-3.714882 23.65881757 -3.76312932 22.01689163 -3.8125 20.375 C-3.81830078 19.55837891 -3.82410156 18.74175781 -3.83007812 17.90039062 C-3.98189691 13.73380855 -4.14087261 11.01537739 -7.17578125 7.98046875 C-7.98402344 7.34753906 -8.79226562 6.71460938 -9.625 6.0625 C-7.46602314 1.74454627 -4.77153865 0.08226791 0 0 Z " fill="#050505" transform="translate(201.625,42.9375)"/>
<path d="M0 0 C3.3 0 6.6 0 10 0 C10 9.24 10 18.48 10 28 C6.7 28 3.4 28 0 28 C0 18.76 0 9.52 0 0 Z " fill="#000000" transform="translate(153,44)"/>
<path d="M0 0 C0 8.25 0 16.5 0 25 C-2.64 25 -5.28 25 -8 25 C-8 24.34 -8 23.68 -8 23 C-8.66 23 -9.32 23 -10 23 C-10.33 23.99 -10.66 24.98 -11 26 C-13.87470493 27.43735246 -15.81894588 27.38172649 -19 27 C-22.4539402 23.5460598 -23.94455028 20.78104489 -24.09765625 15.86328125 C-24.08605469 14.69152344 -24.07445312 13.51976562 -24.0625 12.3125 C-24.05347656 11.13300781 -24.04445312 9.95351563 -24.03515625 8.73828125 C-24.02355469 7.83464844 -24.01195312 6.93101563 -24 6 C-23.34 6 -22.68 6 -22 6 C-21.67 5.34 -21.34 4.68 -21 4 C-21.03480469 4.85722656 -21.06960937 5.71445312 -21.10546875 6.59765625 C-21.26218361 13.21699334 -21.253889 18.17011554 -18 24 C-16.02 24 -14.04 24 -12 24 C-12.33 23.01 -12.66 22.02 -13 21 C-11.35 20.34 -9.7 19.68 -8 19 C-8 18.01 -8 17.02 -8 16 C-7.34 16 -6.68 16 -6 16 C-6 13.36 -6 10.72 -6 8 C-6.66 8 -7.32 8 -8 8 C-8.66 6.35 -9.32 4.7 -10 3 C-7.05214888 -1.16167217 -5.92162466 0 0 0 Z " fill="#0B0B0B" transform="translate(237,45)"/>
<path d="M0 0 C2.97 0 5.94 0 9 0 C9 1.32 9 2.64 9 4 C9.66 4.33 10.32 4.66 11 5 C10.67 5.66 10.34 6.32 10 7 C11.32 7.66 12.64 8.32 14 9 C13.03320312 9.24363281 13.03320312 9.24363281 12.046875 9.4921875 C9.5663746 10.95214403 9.5663746 10.95214403 9.390625 14.6953125 C9.32414708 16.17112237 9.27806121 17.64796017 9.25 19.125 C9.22035156 19.87910156 9.19070312 20.63320312 9.16015625 21.41015625 C9.08942068 23.27285953 9.04245017 25.13643755 9 27 C6.03 27 3.06 27 0 27 C0 18.09 0 9.18 0 0 Z " fill="#090909" transform="translate(169,44)"/>
<path d="M0 0 C0.33 0 0.66 0 1 0 C1.12375 0.73863281 1.2475 1.47726563 1.375 2.23828125 C2.89929903 9.73592709 5.43795286 14.69286505 10.2578125 20.625 C13.18427669 24.61443998 13.12035259 27.89038285 13.0625 32.75 C13.05347656 33.73484375 13.04445313 34.7196875 13.03515625 35.734375 C13.02355469 36.48203125 13.01195312 37.2296875 13 38 C13.66 38 14.32 38 15 38 C15 32.39 15 26.78 15 21 C15.99 20.67 16.98 20.34 18 20 C18.66 20.66 19.32 21.32 20 22 C19.67 22.33 19.34 22.66 19 23 C19.66 23.66 20.32 24.32 21 25 C20.34 25 19.68 25 19 25 C19.01160156 26.07121094 19.02320312 27.14242187 19.03515625 28.24609375 C19.04453299 29.64322743 19.05363331 31.04036299 19.0625 32.4375 C19.07087891 33.14455078 19.07925781 33.85160156 19.08789062 34.58007812 C19.09653588 36.38693559 19.05220011 38.19387603 19 40 C18 41 18 41 16.15234375 41.09765625 C14.1015625 41.06510417 12.05078125 41.03255208 10 41 C9.96261719 40.14277344 9.92523438 39.28554687 9.88671875 38.40234375 C9.38473685 27.90668802 9.38473685 27.90668802 4.2109375 19.00390625 C-0.90884142 13.28240032 -0.90884142 13.28240032 -1.23046875 8.7578125 C-0.96849975 5.78883051 -0.58810446 2.92075409 0 0 Z " fill="#1C1C1C" transform="translate(8,54)"/>
<path d="M0 0 C2.29612756 9.41002278 2.29612756 9.41002278 2 14 C4.64 13.67 7.28 13.34 10 13 C11.74685308 16.82745451 12.34886333 20.12442723 12.625 24.3125 C12.69976562 25.38113281 12.77453125 26.44976562 12.8515625 27.55078125 C12.90054688 28.35902344 12.94953125 29.16726562 13 30 C11.02 30 9.04 30 7 30 C7 29.67 7 29.34 7 29 C8.65 29 10.3 29 12 29 C9.8614515 26.8614515 8.86724686 26.57344937 6 26 C5.67 23.69 5.34 21.38 5 19 C5.66 19 6.32 19 7 19 C7.33 18.34 7.66 17.68 8 17 C4.7 17 1.4 17 -2 17 C-2 16.34 -2 15.68 -2 15 C-2.66 14.67 -3.32 14.34 -4 14 C-3.01 14 -2.02 14 -1 14 C-1.33 10.37 -1.66 6.74 -2 3 C-5.3 3.66 -8.6 4.32 -12 5 C-11.67 6.65 -11.34 8.3 -11 10 C-10.88321201 12.67678073 -10.9545494 15.31841457 -11 18 C-13.72106694 15.27893306 -13.60655572 13.15223689 -14.125 9.375 C-14.29257812 8.18648437 -14.46015625 6.99796875 -14.6328125 5.7734375 C-14.75398438 4.85820312 -14.87515625 3.94296875 -15 3 C-13.25183142 2.49363393 -11.50137737 1.99515381 -9.75 1.5 C-8.77546875 1.2215625 -7.8009375 0.943125 -6.796875 0.65625 C-4 0 -4 0 0 0 Z " fill="#13121C" transform="translate(49,21)"/>
<path d="M0 0 C1.65 0 3.3 0 5 0 C5 12.87 5 25.74 5 39 C3.35 39 1.7 39 0 39 C0 26.13 0 13.26 0 0 Z " fill="#000000" transform="translate(140,30)"/>
<path d="M0 0 C2.18975773 3.28463659 2.99806563 6.20696275 4 10 C0.98968256 10.93423645 0.13349732 11.04449911 -3 10 C-6.15616998 14.41156532 -6.88458164 18.57817429 -7.6875 23.8125 C-7.81705078 24.60076172 -7.94660156 25.38902344 -8.08007812 26.20117188 C-8.39612969 28.13259813 -8.69936289 30.06611445 -9 32 C-9.33 32 -9.66 32 -10 32 C-10.05404449 29.24973583 -10.09369306 26.50053797 -10.125 23.75 C-10.14175781 22.97269531 -10.15851562 22.19539063 -10.17578125 21.39453125 C-10.21035174 17.34978426 -10.1640115 14.53651685 -8 11 C-7.77852052 7.45632834 -7.95506081 4.39605237 -9 1 C-5.65626525 1.55728913 -2.96687001 2.35173889 0 4 C0 2.68 0 1.36 0 0 Z " fill="#1B1B1B" transform="translate(68,56)"/>
<path d="M0 0 C2.375 1.5625 2.375 1.5625 4 4 C3.9375 7.625 3.9375 7.625 3 11 C-0.23253796 13.15502531 -1.25150923 13.46856135 -5 13 C-6.8125 11.9375 -6.8125 11.9375 -8 10 C-8.6384 4.0416 -8.6384 4.0416 -6.8125 1.0625 C-4.29445572 -0.41359492 -2.87523324 -0.49089348 0 0 Z " fill="#AACF38" transform="translate(160,28)"/>
<path d="M0 0 C1.28317892 3.84953676 1.06643637 6.94738135 1 11 C-2.47325181 12.1577506 -5.36067448 12.06866652 -9 12 C-9.07347656 10.93458984 -9.07347656 10.93458984 -9.1484375 9.84765625 C-9.26058594 8.46900391 -9.26058594 8.46900391 -9.375 7.0625 C-9.44460937 6.14597656 -9.51421875 5.22945312 -9.5859375 4.28515625 C-9.72257812 3.53105469 -9.85921875 2.77695312 -10 2 C-10.66 1.67 -11.32 1.34 -12 1 C-10.56274129 0.83126522 -9.12518162 0.66509263 -7.6875 0.5 C-6.88699219 0.4071875 -6.08648437 0.314375 -5.26171875 0.21875 C-3 0 -3 0 0 0 Z " fill="#87A52B" transform="translate(47,24)"/>
<path d="M0 0 C1.75 0.125 1.75 0.125 4 1 C10.03663357 8.76138602 9.4099893 16.570246 9 26 C8.52458569 29.39404477 7.8731123 32.68685065 7 36 C4.86061001 32.79091501 4.76971448 32.0905527 4.875 28.4296875 C4.89046875 27.5325 4.9059375 26.6353125 4.921875 25.7109375 C4.97331316 23.84373212 5.02538011 21.97654393 5.078125 20.109375 C5.18156647 14.05804924 4.53425865 8.86134749 3 3 C2.34 3 1.68 3 1 3 C0.67 2.01 0.34 1.02 0 0 Z " fill="#151515" transform="translate(21,4)"/>
<path d="M0 0 C1.32 0.66 2.64 1.32 4 2 C3.67 2.33 3.34 2.66 3 3 C3.66 3.66 4.32 4.32 5 5 C4.34 5 3.68 5 3 5 C3.01160156 6.07121094 3.02320313 7.14242187 3.03515625 8.24609375 C3.04453299 9.64322743 3.05363331 11.04036299 3.0625 12.4375 C3.07087891 13.14455078 3.07925781 13.85160156 3.08789062 14.58007812 C3.09653588 16.38693559 3.05220011 18.19387603 3 20 C2 21 2 21 0.15234375 21.09765625 C-1.8984375 21.06510417 -3.94921875 21.03255208 -6 21 C-6 20.34 -6 19.68 -6 19 C-4.35 18.67 -2.7 18.34 -1 18 C-1.01160156 16.78441406 -1.02320313 15.56882812 -1.03515625 14.31640625 C-1.04453278 12.73177236 -1.05363313 11.14713682 -1.0625 9.5625 C-1.07087891 8.76005859 -1.07925781 7.95761719 -1.08789062 7.13085938 C-1.0965143 5.08704779 -1.0522815 3.04316098 -1 1 C-0.67 0.67 -0.34 0.34 0 0 Z " fill="#343434" transform="translate(24,74)"/>
<path d="M0 0 C3.3 0 6.6 0 10 0 C10 9.24 10 18.48 10 28 C6.7 28 3.4 28 0 28 C0.495 26.515 0.495 26.515 1 25 C3.31 25 5.62 25 8 25 C8 17.41 8 9.82 8 2 C5.36 2 2.72 2 0 2 C0 1.34 0 0.68 0 0 Z " fill="#1B1B1B" transform="translate(153,44)"/>
<path d="M0 0 C0.99 0 1.98 0 3 0 C2.875 2.75 2.875 2.75 2 6 C-3.63144029 10.63029535 -8.56077076 11.35833275 -15.6484375 11.28515625 C-18 11 -18 11 -20.625 9.25 C-22 7 -22 7 -22 3 C-21.01 3 -20.02 3 -19 3 C-18.54496094 3.65226562 -18.08992188 4.30453125 -17.62109375 4.9765625 C-16.17545743 7.22667504 -16.17545743 7.22667504 -13.66015625 7.4609375 C-12.80292969 7.43257812 -11.94570313 7.40421875 -11.0625 7.375 C-10.20785156 7.36210938 -9.35320313 7.34921875 -8.47265625 7.3359375 C-5.86762662 6.98201562 -4.20162149 6.42544008 -2 5 C-0.71745356 2.46229997 -0.71745356 2.46229997 0 0 Z " fill="#DBDBDB" transform="translate(50,54)"/>
<path d="M0 0 C1.65 0.33 3.3 0.66 5 1 C5.66 6.28 6.32 11.56 7 17 C5.02 17 3.04 17 1 17 C1 16.67 1 16.34 1 16 C2.65 16 4.3 16 6 16 C3.8614515 13.8614515 2.86724686 13.57344937 0 13 C-0.33 10.69 -0.66 8.38 -1 6 C-0.34 6 0.32 6 1 6 C1.33 5.34 1.66 4.68 2 4 C0.35 4 -1.3 4 -3 4 C-3 3.67 -3 3.34 -3 3 C-1.35 3 0.3 3 2 3 C2 2.34 2 1.68 2 1 C1.34 0.67 0.68 0.34 0 0 Z " fill="#1B1B22" transform="translate(55,34)"/>
<path d="M0 0 C1.32 0 2.64 0 4 0 C5.16983345 2.3396669 5.1661241 3.83391527 5.1875 6.4375 C5.20167969 7.21996094 5.21585937 8.00242187 5.23046875 8.80859375 C5 11 5 11 3 14 C1.68 13.34 0.36 12.68 -1 12 C-1.02687279 10.18757948 -1.04633715 8.37504767 -1.0625 6.5625 C-1.07410156 5.55316406 -1.08570312 4.54382812 -1.09765625 3.50390625 C-1 1 -1 1 0 0 Z " fill="#EEEEEE" transform="translate(118,51)"/>
<path d="M0 0 C0.66 0 1.32 0 2 0 C1.59966157 6.20524561 0.37804655 10.92952973 -2.078125 16.625 C-3.30173223 19.77734404 -3.70809673 22.64311237 -4 26 C-4.99 26.33 -5.98 26.66 -7 27 C-7.3269645 20.80158781 -6.41710462 16.39350983 -4.0625 10.6875 C-3.51162364 9.29561055 -2.96083876 7.9036849 -2.41015625 6.51171875 C-1.94480469 5.35285156 -1.47945312 4.19398437 -1 3 C-0.67 2.01 -0.34 1.02 0 0 Z " fill="#101010" transform="translate(14,34)"/>
<path d="M0 0 C2.55905015 4.43568693 3.35894644 8.2705308 2.3125 13.3125 C1 16 1 16 -0.625 16.875 C-4.09199463 17.0574734 -7.52785608 17.05786907 -11 17 C-9.1875 15 -9.1875 15 -7 13 C-6.01 13 -5.02 13 -4 13 C-4 10.69 -4 8.38 -4 6 C-3.34 6 -2.68 6 -2 6 C-1.67 8.31 -1.34 10.62 -1 13 C-0.34 13 0.32 13 1 13 C0.76603516 11.71802734 0.76603516 11.71802734 0.52734375 10.41015625 C0.23537109 8.75306641 0.23537109 8.75306641 -0.0625 7.0625 C-0.25972656 5.96035156 -0.45695312 4.85820313 -0.66015625 3.72265625 C-0.77230469 2.82417969 -0.88445313 1.92570312 -1 1 C-0.67 0.67 -0.34 0.34 0 0 Z " fill="#040408" transform="translate(46,39)"/>
<path d="M0 0 C0.8523482 2.90454041 1.0355529 5.29945716 0.875 8.3125 C0.79852593 12.93153365 1.91230384 15.91159502 4 20 C5.98 20 7.96 20 10 20 C9.67 19.01 9.34 18.02 9 17 C9.99 17.33 10.98 17.66 12 18 C11.625 19.9375 11.625 19.9375 11 22 C8.12529507 23.43735246 6.18105412 23.38172649 3 23 C-0.4539402 19.5460598 -1.94455028 16.78104489 -2.09765625 11.86328125 C-2.08605469 10.69152344 -2.07445312 9.51976562 -2.0625 8.3125 C-2.05347656 7.13300781 -2.04445312 5.95351563 -2.03515625 4.73828125 C-2.02355469 3.83464844 -2.01195312 2.93101563 -2 2 C-1.34 2 -0.68 2 0 2 C0 1.34 0 0.68 0 0 Z " fill="#191919" transform="translate(215,49)"/>
<path d="M0 0 C2 3 2 3 2 6 C3.98 6 5.96 6 8 6 C8.33 6.66 8.66 7.32 9 8 C8.01 8 7.02 8 6 8 C4.98617037 11.6208201 4.50102309 15.27811418 4 19 C1 17 1 17 0.234375 14.609375 C-1.37722539 5.09573396 -1.37722539 5.09573396 0 0 Z " fill="#262727" transform="translate(25,34)"/>
<path d="M0 0 C2 1 2 1 2.78125 2.77734375 C3.0184375 3.49019531 3.255625 4.20304687 3.5 4.9375 C4.42402464 7.70455204 4.89137369 8.89137369 7 11 C10.12814514 11.24360073 10.12814514 11.24360073 13.625 11.125 C14.81351563 11.10695313 16.00203125 11.08890625 17.2265625 11.0703125 C18.59941406 11.03550781 18.59941406 11.03550781 20 11 C19.67 11.99 19.34 12.98 19 14 C7.29375239 14.77127546 7.29375239 14.77127546 2.75 12.0625 C0.46415618 8.06227331 0.10908706 4.55190537 0 0 Z " fill="#040404" transform="translate(25,53)"/>
<path d="M0 0 C0.99 0.33 1.98 0.66 3 1 C3 4.63 3 8.26 3 12 C1.68 12.33 0.36 12.66 -1 13 C-2.66561399 11.33438601 -2.17115945 9.34037295 -2.1875 7.0625 C-2.20167969 6.16660156 -2.21585938 5.27070312 -2.23046875 4.34765625 C-2 2 -2 2 0 0 Z " fill="#E6E6E6" transform="translate(225,51)"/>
<path d="M0 0 C0.99 0.33 1.98 0.66 3 1 C2.360625 1.9075 1.72125 2.815 1.0625 3.75 C-2.6089699 10.10696202 -2.05233051 17.85688584 -2 25 C-4.34055172 23.19195475 -4.95454273 22.30483111 -5.3984375 19.328125 C-5.33824038 11.42223637 -4.41718733 6.62578099 0 0 Z " fill="#181818" transform="translate(85,35)"/>
<path d="M0 0 C-0.66 2.97 -1.32 5.94 -2 9 C-1.01 9.33 -0.02 9.66 1 10 C-1.64 10.33 -4.28 10.66 -7 11 C-6.01 10.67 -5.02 10.34 -4 10 C-4.33 7.69 -4.66 5.38 -5 3 C-5.66 3 -6.32 3 -7 3 C-7 4.98 -7 6.96 -7 9 C-9 7 -9 7 -9.125 3.875 C-9.08375 2.92625 -9.0425 1.9775 -9 1 C-5.8035914 -0.06546953 -3.34252724 -0.07427838 0 0 Z " fill="#9BBE32" transform="translate(40,41)"/>
<path d="M0 0 C1.32 0.33 2.64 0.66 4 1 C4.90901939 4.04842865 5.06173367 6.59661636 4.87890625 9.765625 C4.83056641 10.65507813 4.78222656 11.54453125 4.73242188 12.4609375 C4.64831055 13.84152344 4.64831055 13.84152344 4.5625 15.25 C4.51029297 16.18585937 4.45808594 17.12171875 4.40429688 18.0859375 C4.27493175 20.39098887 4.13997966 22.69557289 4 25 C1.36 25 -1.28 25 -4 25 C-4 19.39 -4 13.78 -4 8 C-3.67 8 -3.34 8 -3 8 C-3 13.28 -3 18.56 -3 24 C-1.02 24 0.96 24 3 24 C2.88545196 21.12424132 2.7587153 18.24987888 2.625 15.375 C2.5940625 14.56675781 2.563125 13.75851563 2.53125 12.92578125 C2.3047054 8.28161686 1.7407332 4.37306144 0 0 Z " fill="#1C1C1C" transform="translate(203,45)"/>
<path d="M0 0 C0.33 0.99 0.66 1.98 1 3 C-2.54089394 4.08749814 -5.8707086 4.16650005 -9.5625 4.1875 C-10.69816406 4.20167969 -11.83382812 4.21585937 -13.00390625 4.23046875 C-16 4 -16 4 -19 2 C-16.95639838 -0.04360162 -12.88207851 0.58615539 -10.0625 0.4375 C-8.9497168 0.37272461 -8.9497168 0.37272461 -7.81445312 0.30664062 C-2.44580853 0 -2.44580853 0 0 0 Z " fill="#070707" transform="translate(45,75)"/>
<path d="M0 0 C0.33 0.66 0.66 1.32 1 2 C1.66 2 2.32 2 3 2 C3.33 2.99 3.66 3.98 4 5 C3.34 5 2.68 5 2 5 C1.938125 5.928125 1.87625 6.85625 1.8125 7.8125 C1 11 1 11 -1.3125 12.8125 C-3.56968364 13.80986021 -5.58162861 14.55215345 -8 15 C-8 14.01 -8 13.02 -8 12 C-6.02 11.34 -4.04 10.68 -2 10 C-1.34 6.7 -0.68 3.4 0 0 Z " fill="#101010" transform="translate(21,5)"/>
<path d="M0 0 C-0.33 0.99 -0.66 1.98 -1 3 C-1.33 3 -1.66 3 -2 3 C-1.814375 4.134375 -1.62875 5.26875 -1.4375 6.4375 C-1.293125 7.613125 -1.14875 8.78875 -1 10 C-2 11 -2 11 -5.0625 11.0625 C-6.031875 11.041875 -7.00125 11.02125 -8 11 C-8 9.35 -8 7.7 -8 6 C-7.34 6.66 -6.68 7.32 -6 8 C-5.67 6.02 -5.34 4.04 -5 2 C-5.66 1.67 -6.32 1.34 -7 1 C-4.53721199 -0.231394 -2.7204945 -0.07159196 0 0 Z " fill="#9BBE31" transform="translate(57,38)"/>
<path d="M0 0 C0.33 0.99 0.66 1.98 1 3 C-3.7907489 7.95044053 -3.7907489 7.95044053 -7.3828125 8.09765625 C-8.28773437 8.08605469 -9.19265625 8.07445312 -10.125 8.0625 C-11.03507812 8.05347656 -11.94515625 8.04445313 -12.8828125 8.03515625 C-13.58148438 8.02355469 -14.28015625 8.01195312 -15 8 C-15 7.01 -15 6.02 -15 5 C-13.783125 5.061875 -12.56625 5.12375 -11.3125 5.1875 C-7.40073507 5.19442348 -5.16318668 4.41890746 -2 2 C-1.34 1.34 -0.68 0.68 0 0 Z " fill="#0D0D0D" transform="translate(49,54)"/>
<path d="M0 0 C-0.9375 1.9375 -0.9375 1.9375 -3 4 C-6.68211985 4.90367044 -10.53139591 5.73430205 -14 4 C-14 3.34 -14 2.68 -14 2 C-4.58997722 -0.29612756 -4.58997722 -0.29612756 0 0 Z " fill="#C3C3C3" transform="translate(48,55)"/>
<path d="M0 0 C2.35119399 3.52679099 2.21443452 5.02879485 2.125 9.1875 C2.10695313 10.27417969 2.08890625 11.36085938 2.0703125 12.48046875 C2.03550781 13.72763672 2.03550781 13.72763672 2 15 C1.01 15 0.02 15 -1 15 C-1.02693575 12.87506859 -1.04636628 10.75004088 -1.0625 8.625 C-1.07410156 7.44164063 -1.08570312 6.25828125 -1.09765625 5.0390625 C-1 2 -1 2 0 0 Z " fill="#0C0C0C" transform="translate(19,78)"/>
<path d="M0 0 C0 3.3 0 6.6 0 10 C-0.99 10.33 -1.98 10.66 -3 11 C-3 8.69 -3 6.38 -3 4 C-4.65 4 -6.3 4 -8 4 C-7.67 3.01 -7.34 2.02 -7 1 C-2.25 0 -2.25 0 0 0 Z " fill="#222222" transform="translate(103,61)"/>
<path d="M0 0 C0 0.66 0 1.32 0 2 C-1.65 2.33 -3.3 2.66 -5 3 C-4.835 3.66 -4.67 4.32 -4.5 5 C-3.87816701 8.73099794 -3.93591074 12.21873378 -4 16 C-6.72106694 13.27893306 -6.60655572 11.15223689 -7.125 7.375 C-7.29257812 6.18648437 -7.46015625 4.99796875 -7.6328125 3.7734375 C-7.75398438 2.85820312 -7.87515625 1.94296875 -8 1 C-5.07175348 0.02391783 -3.04386724 -0.08226668 0 0 Z " fill="#01010C" transform="translate(42,23)"/>
<path d="M0 0 C0.78375 0.04125 1.5675 0.0825 2.375 0.125 C1.59125 0.723125 0.8075 1.32125 0 1.9375 C-2.77074323 4.03585249 -2.77074323 4.03585249 -4.625 7.125 C-4.86687651 9.87018321 -4.86687651 9.87018321 -4.75 12.8125 C-4.73195313 13.80636719 -4.71390625 14.80023438 -4.6953125 15.82421875 C-4.67210938 16.58347656 -4.64890625 17.34273437 -4.625 18.125 C-4.955 18.125 -5.285 18.125 -5.625 18.125 C-5.769375 17.031875 -5.91375 15.93875 -6.0625 14.8125 C-6.50788104 11.19377013 -6.50788104 11.19377013 -7.625 8.125 C-4.22916667 0.20138889 -4.22916667 0.20138889 0 0 Z " fill="#151515" transform="translate(114.625,44.875)"/>
<path d="M0 0 C0.33 0.66 0.66 1.32 1 2 C3.50944662 2.83947153 3.50944662 2.83947153 6.4375 3.5 C11.78216123 4.78216123 11.78216123 4.78216123 14 7 C12.41753293 7.08153933 10.83383727 7.13943557 9.25 7.1875 C7.92742187 7.23970703 7.92742187 7.23970703 6.578125 7.29296875 C3.47880755 6.94077359 2.15551344 6.24112963 0 4 C0 2.68 0 1.36 0 0 Z " fill="#1C1C1C" transform="translate(110,65)"/>
<path d="M0 0 C0.99 0 1.98 0 3 0 C2.51392405 5.46835443 2.51392405 5.46835443 0.1875 7.875 C-2 9 -2 9 -6 9 C-6 8.34 -6 7.68 -6 7 C-5.071875 6.6596875 -5.071875 6.6596875 -4.125 6.3125 C-1.38589791 4.62070165 -0.94975528 3.00755839 0 0 Z " fill="#D2D2D2" transform="translate(50,54)"/>
<path d="M0 0 C0.33 0 0.66 0 1 0 C1 1.65 1 3.3 1 5 C2.98 5 4.96 5 7 5 C7 5.66 7 6.32 7 7 C3.7 7.33 0.4 7.66 -3 8 C-3 7.34 -3 6.68 -3 6 C-3.66 5.67 -4.32 5.34 -5 5 C-4.01 5 -3.02 5 -2 5 C-1.67 4.01 -1.34 3.02 -1 2 C-0.67 1.34 -0.34 0.68 0 0 Z " fill="#13160D" transform="translate(50,30)"/>
<path d="M0 0 C1.75 0.125 1.75 0.125 4 1 C6.3125 3.75 6.3125 3.75 8 7 C7.75 9.875 7.75 9.875 7 12 C6.34 12 5.68 12 5 12 C4.34 9.03 3.68 6.06 3 3 C2.34 3 1.68 3 1 3 C0.67 2.01 0.34 1.02 0 0 Z " fill="#262626" transform="translate(21,4)"/>
<path d="M0 0 C2.475 0.495 2.475 0.495 5 1 C5 1.99 5 2.98 5 4 C5.66 4 6.32 4 7 4 C7 6.64 7 9.28 7 12 C6.01 12.33 5.02 12.66 4 13 C3.67 9.04 3.34 5.08 3 1 C2.01 0.67 1.02 0.34 0 0 Z " fill="#131313" transform="translate(224,49)"/>
<path d="M0 0 C2.18975773 3.28463659 2.99806563 6.20696275 4 10 C2.68 10.33 1.36 10.66 0 11 C-0.12375 10.21625 -0.2475 9.4325 -0.375 8.625 C-0.79117993 5.85942178 -0.79117993 5.85942178 -3 4 C-2.01 4 -1.02 4 0 4 C0 2.68 0 1.36 0 0 Z " fill="#2D2D2D" transform="translate(68,56)"/>
<path d="M0 0 C0.99 0 1.98 0 3 0 C4.125 6.625 4.125 6.625 3 10 C2.01 9.67 1.02 9.34 0 9 C0 6.03 0 3.06 0 0 Z " fill="#5B701B" transform="translate(44,24)"/>
<path d="M0 0 C0.33 3.3 0.66 6.6 1 10 C-0.65 10 -2.3 10 -4 10 C-3.67 9.34 -3.34 8.68 -3 8 C-2.95977609 5.6670134 -2.95679753 3.33293334 -3 1 C-1 0 -1 0 0 0 Z " fill="#60771D" transform="translate(41,42)"/>
<path d="M0 0 C1.85776765 3.13498292 2.20140476 5.37471432 2 9 C0.68 8.67 -0.64 8.34 -2 8 C-2.33 5.69 -2.66 3.38 -3 1 C-2.01 0.67 -1.02 0.34 0 0 Z " fill="#5E741D" transform="translate(57,39)"/>
<path d="M0 0 C1.32 0.33 2.64 0.66 4 1 C4 3.64 4 6.28 4 9 C2.68 8.67 1.36 8.34 0 8 C0 5.36 0 2.72 0 0 Z " fill="#5D721C" transform="translate(48,38)"/>
<path d="M0 0 C0.66 0 1.32 0 2 0 C2.33872513 1.41538717 2.67074624 2.83237963 3 4.25 C3.185625 5.03890625 3.37125 5.8278125 3.5625 6.640625 C4 9 4 9 4 13 C3.34 13 2.68 13 2 13 C1.66127487 11.58461283 1.32925376 10.16762037 1 8.75 C0.814375 7.96109375 0.62875 7.1721875 0.4375 6.359375 C0 4 0 4 0 0 Z " fill="#BDBDBD" transform="translate(43,39)"/>
<path d="M0 0 C0 3.63 0 7.26 0 11 C-0.99 10.67 -1.98 10.34 -3 10 C-3 9.34 -3 8.68 -3 8 C-4.65 8 -6.3 8 -8 8 C-8 7.67 -8 7.34 -8 7 C-6.35 7 -4.7 7 -3 7 C-3 5.02 -3 3.04 -3 1 C-1 0 -1 0 0 0 Z " fill="#323232" transform="translate(103,31)"/>
<path d="M0 0 C1.98 0 3.96 0 6 0 C5.67 2.97 5.34 5.94 5 9 C4.67 8.01 4.34 7.02 4 6 C3.34 6 2.68 6 2 6 C2 4.68 2 3.36 2 2 C1.34 2 0.68 2 0 2 C0 1.34 0 0.68 0 0 Z " fill="#343434" transform="translate(12,28)"/>
<path d="M0 0 C2 2 2 2 2.75 4 C4.5669377 6.90710032 6.78457488 7.16119345 10 8 C9.67 8.99 9.34 9.98 9 11 C5.09146099 9.69715366 2.53954718 8.2920056 0 5 C-0.25 2.25 -0.25 2.25 0 0 Z " fill="#1D1D1D" transform="translate(83,61)"/>
<path d="M0 0 C0.33 0 0.66 0 1 0 C1 3.63 1 7.26 1 11 C0.01 10.67 -0.98 10.34 -2 10 C-2 7.36 -2 4.72 -2 2 C-1.34 2 -0.68 2 0 2 C0 1.34 0 0.68 0 0 Z " fill="#101010" transform="translate(222,52)"/>
<path d="M0 0 C3.35358125 1.11786042 5.31158141 2.74754119 8 5 C7.67 5.99 7.34 6.98 7 8 C6.34 7.67 5.68 7.34 5 7 C5 6.34 5 5.68 5 5 C3.02 5.33 1.04 5.66 -1 6 C-0.67 4.02 -0.34 2.04 0 0 Z " fill="#22241B" transform="translate(48,49)"/>
<path d="M0 0 C0.66 0 1.32 0 2 0 C2.33 2.31 2.66 4.62 3 7 C3.99 7.33 4.98 7.66 6 8 C3.69 8 1.38 8 -1 8 C-0.67 5.36 -0.34 2.72 0 0 Z " fill="#5C721C" transform="translate(39,28)"/>
<path d="M0 0 C2.56529454 1.28264727 2.66499863 2.22772349 3.625 4.875 C3.88539062 5.57367188 4.14578125 6.27234375 4.4140625 6.9921875 C5 9 5 9 5 12 C4.01 11.67 3.02 11.34 2 11 C0.60955102 7.12137916 0 4.13537997 0 0 Z " fill="#0C0C0C" transform="translate(25,53)"/>
<path d="M0 0 C0.99 0.33 1.98 0.66 3 1 C2.38125 2.0725 1.7625 3.145 1.125 4.25 C-0.3323679 6.79780984 -1.72924491 9.35259355 -3 12 C-3.75 9.375 -3.75 9.375 -4 6 C-2.0625 2.625 -2.0625 2.625 0 0 Z " fill="#232323" transform="translate(85,35)"/>
<path d="M0 0 C2.9262753 1.31177858 4.75289234 2.75289234 7 5 C9.09989652 6.17574711 9.09989652 6.17574711 11 7 C7.75 7.3125 7.75 7.3125 4 7 C1.5625 4.625 1.5625 4.625 0 2 C0 1.34 0 0.68 0 0 Z " fill="#101010" transform="translate(89,57)"/>
<path d="M0 0 C1.32 0.33 2.64 0.66 4 1 C4.33 3.31 4.66 5.62 5 8 C4.34 8 3.68 8 3 8 C0 2.25 0 2.25 0 0 Z " fill="#101010" transform="translate(63,52)"/>
<path d="M0 0 C0.66 0 1.32 0 2 0 C2.144375 1.11375 2.28875 2.2275 2.4375 3.375 C2.78372035 6.82142047 2.78372035 6.82142047 4 9 C2.35 9 0.7 9 -1 9 C-0.67 6.03 -0.34 3.06 0 0 Z " fill="#4A5B16" transform="translate(33,44)"/>
<path d="M0 0 C0 1.65 0 3.3 0 5 C-0.45375 4.525625 -0.9075 4.05125 -1.375 3.5625 C-2.93258204 1.90972192 -2.93258204 1.90972192 -5 1 C-4.67 2.98 -4.34 4.96 -4 7 C-4.66 7 -5.32 7 -6 7 C-6.33 7.66 -6.66 8.32 -7 9 C-6.67 6.03 -6.34 3.06 -6 0 C-3 -1 -3 -1 0 0 Z " fill="#252B16" transform="translate(48,38)"/>
<path d="M0 0 C1.98 0.99 1.98 0.99 4 2 C4.33 2.99 4.66 3.98 5 5 C3.5625 7.1875 3.5625 7.1875 2 9 C1.34 6.03 0.68 3.06 0 0 Z " fill="#242424" transform="translate(15,73)"/>
<path d="M0 0 C0.66 0 1.32 0 2 0 C2.33 2.97 2.66 5.94 3 9 C2.01 8.34 1.02 7.68 0 7 C-0.1875 3.375 -0.1875 3.375 0 0 Z " fill="#C5C5C5" transform="translate(26,44)"/>
<path d="M0 0 C2.25 -0.3125 2.25 -0.3125 5 0 C7.3125 2.5 7.3125 2.5 9 5 C8.34 6.32 7.68 7.64 7 9 C6.34 6.69 5.68 4.38 5 2 C3.35 1.67 1.7 1.34 0 1 C0 0.67 0 0.34 0 0 Z " fill="#222222" transform="translate(123,45)"/>
<path d="M0 0 C1.9375 0.8125 1.9375 0.8125 4 2 C4.33 2.99 4.66 3.98 5 5 C2 5 2 5 -1 3 C-0.67 2.01 -0.34 1.02 0 0 Z " fill="#2A2A2A" transform="translate(46,74)"/>
<path d="M0 0 C1.65 0.33 3.3 0.66 5 1 C5 1.99 5 2.98 5 4 C1.71023192 5.09658936 0.28696233 4.79953138 -3 4 C-3 3.67 -3 3.34 -3 3 C-1.35 3 0.3 3 2 3 C2 2.34 2 1.68 2 1 C1.34 0.67 0.68 0.34 0 0 Z " fill="#3D442B" transform="translate(55,34)"/>
<path d="M0 0 C0.99 1.485 0.99 1.485 2 3 C2.98095748 4.01868662 3.97702078 5.02351983 5 6 C5.33 5.01 5.66 4.02 6 3 C6 4.32 6 5.64 6 7 C4.02 7 2.04 7 0 7 C0 4.69 0 2.38 0 0 Z " fill="#A9CE36" transform="translate(42,28)"/>
<path d="M0 0 C0.99 0 1.98 0 3 0 C4.75 1.8125 4.75 1.8125 6 4 C5.67 4.99 5.34 5.98 5 7 C3.29115995 5.37660195 1.62553283 3.70680947 0 2 C0 1.34 0 0.68 0 0 Z " fill="#232323" transform="translate(192,47)"/>
<path d="M0 0 C1.9375 0.8125 1.9375 0.8125 4 2 C4.33 2.99 4.66 3.98 5 5 C4.67 5.66 4.34 6.32 4 7 C3.34 7 2.68 7 2 7 C1.34 4.69 0.68 2.38 0 0 Z " fill="#141414" transform="translate(49,76)"/>
<path d="M0 0 C0.66 0.66 1.32 1.32 2 2 C1.67028521 5.29714793 1.3773161 6.6226839 -1 9 C-0.67 6.03 -0.34 3.06 0 0 Z " fill="#191919" transform="translate(24,42)"/>
<path d="M0 0 C0.66 0 1.32 0 2 0 C2.125 2.875 2.125 2.875 2 6 C1.34 6.66 0.68 7.32 0 8 C-0.79953138 4.71303767 -1.09658936 3.28976808 0 0 Z " fill="#0E0E0E" transform="translate(14,34)"/>
<path d="M0 0 C-2.61941217 1.74627478 -4.03824877 2.38722388 -7 3 C-7 2.01 -7 1.02 -7 0 C-4.3333581 -1.33332095 -2.83319697 -0.67102033 0 0 Z " fill="#070707" transform="translate(20,17)"/>
</svg>
