<?xml version="1.0" encoding="UTF-8" standalone="no"?>
<!DOCTYPE svg PUBLIC "-//W3C//DTD SVG 1.1//EN" "http://www.w3.org/Graphics/SVG/1.1/DTD/svg11.dtd">
<svg width="100%" height="100%" viewBox="0 0 2129 871" version="1.1" xmlns="http://www.w3.org/2000/svg" xmlns:xlink="http://www.w3.org/1999/xlink" xml:space="preserve" xmlns:serif="http://www.serif.com/" style="fill-rule:evenodd;clip-rule:evenodd;stroke-linecap:round;stroke-linejoin:round;stroke-miterlimit:1.5;">
    <g transform="matrix(1,0,0,1,-8928.08,-3921.33)">
        <g id="colima-logo-horizontal-2" transform="matrix(1.03939,0,0,0.425169,-3454.23,3921.33)">
            <rect x="11913" y="0" width="2048" height="2048" style="fill:none;"/>
            <g transform="matrix(2.01102,0,0,2.35201,-12722,-959.748)">
                <g transform="matrix(0.478413,0,0,1,10007.4,-50.5661)">
                    <g>
                        <g>
                            <g transform="matrix(1,0,0,1,-1274.95,-38.3567)">
                                <path d="M6209.14,665.301C6213.44,744.668 6197.11,821.935 6179.94,899.115C6172.13,950.665 6192.97,977.421 6242.2,979.616C6321.1,978.056 6394.44,956.145 6468.38,936.422C6550.18,937.542 6539.39,1005.27 6575.13,1063.78C6532.02,1064.38 6503.87,990.16 6491.54,1004.31C6509.15,1031.27 6511.85,1044.74 6513,1063.78C6495.95,1094.53 6481.52,1122.25 6479.12,1135.98C6487.39,1199.57 6485.56,1260.18 6479.12,1319.42L6429.41,1319.42C6436.39,1227.37 6417.16,1173.07 6371.32,1157.06C6308.9,1178.16 6235.76,1183 6179.94,1157.06L6179.94,1308.65L6131.18,1308.65C6138.29,1215.46 6124.01,1160.8 6093.16,1135.98C6055.13,1083.78 6041.97,1093.7 6035.3,1004.31C6029.38,924.934 6107.4,855.52 6103.17,744.994C6082.61,740.495 6055.08,744.633 6016.69,744.994C6001.71,716.96 6009.91,695.602 6035.3,680.738C6088.23,657.891 6109.74,644.626 6131.13,638.865M6131.18,638.865C6141.9,629.026 6160.2,584.852 6157.65,545.278C6195.28,572.248 6203.34,612.399 6209.14,665.301" style="fill:white;stroke:black;stroke-width:32px;"/>
                            </g>
                            <g transform="matrix(1,0,0,1,-1274.95,-31.3567)">
                                <path d="M6193.65,964.865C6191.1,1046.97 6228.04,1072.44 6299.89,1065.14C6393.83,1062.84 6436.19,1027.03 6439.52,947.258" style="fill:none;stroke:black;stroke-width:28px;"/>
                            </g>
                            <g transform="matrix(0.626073,0,0,0.626073,1087.97,320.371)">
                                <path d="M6193.65,964.865C6191.1,1046.97 6228.04,1072.44 6299.89,1065.14C6393.83,1062.84 6436.19,1027.03 6439.52,947.258" style="fill:none;stroke:black;stroke-width:44.72px;"/>
                            </g>
                            <g transform="matrix(0.980242,-0.196172,0.196235,0.980557,-1362.78,1200.07)">
                                <rect x="6256.01" y="862.851" width="110.977" height="119.202" style="fill:rgb(169,207,55);stroke:black;stroke-width:28px;"/>
                            </g>
                            <g transform="matrix(0.980242,-0.196172,0.196235,0.980557,-1216.68,1169.32)">
                                <rect x="6256.01" y="862.851" width="110.977" height="119.202" style="fill:rgb(169,207,55);stroke:black;stroke-width:28px;"/>
                            </g>
                            <g transform="matrix(0.980242,-0.196172,0.196235,0.980557,-1307.33,1056.92)">
                                <rect x="6256.01" y="862.851" width="110.977" height="119.202" style="fill:rgb(169,207,55);stroke:black;stroke-width:28px;"/>
                            </g>
                            <g transform="matrix(0.983167,-0.182707,0.182707,0.983167,-840.213,975.602)">
                                <path d="M5827.58,809.971L5827.58,850.751" style="fill:none;stroke:black;stroke-width:20px;"/>
                            </g>
                            <g transform="matrix(0.983167,-0.182707,0.182707,0.983167,-800.886,968.294)">
                                <path d="M5827.58,809.971L5827.58,850.751" style="fill:none;stroke:black;stroke-width:20px;"/>
                            </g>
                            <g transform="matrix(0.983167,-0.182707,0.182707,0.983167,-895.354,1117.91)">
                                <path d="M5827.58,809.971L5827.58,850.751" style="fill:none;stroke:black;stroke-width:20px;"/>
                            </g>
                            <g transform="matrix(0.983167,-0.182707,0.182707,0.983167,-856.027,1110.61)">
                                <path d="M5827.58,809.971L5827.58,850.751" style="fill:none;stroke:black;stroke-width:20px;"/>
                            </g>
                            <g transform="matrix(0.983167,-0.182707,0.182707,0.983167,-748.39,1086.91)">
                                <path d="M5827.58,809.971L5827.58,850.751" style="fill:none;stroke:black;stroke-width:20px;"/>
                            </g>
                            <g transform="matrix(0.983167,-0.182707,0.182707,0.983167,-709.063,1079.6)">
                                <path d="M5827.58,809.971L5827.58,850.751" style="fill:none;stroke:black;stroke-width:20px;"/>
                            </g>
                        </g>
                    </g>
                </g>
                <g transform="matrix(0.564546,0,0,1.18004,9964.64,-848.588)">
                    <g transform="matrix(1,0,0,1,-2117.33,789.036)">
                        <path d="M6930.84,714.359L6926.15,801.469C6908.05,808.76 6891.84,812.406 6877.52,812.406C6843.79,812.406 6815.41,800.036 6792.36,775.297C6766.58,747.562 6753.69,708.305 6753.69,657.523C6753.69,609.997 6765.8,571.846 6790.02,543.07C6814.24,514.424 6846.59,500.101 6887.09,500.101C6900.24,500.101 6913.65,502.575 6927.32,507.523L6927.32,593.656C6915.21,581.547 6902.78,575.492 6890.02,575.492C6873.35,575.492 6860.33,582.588 6850.95,596.781C6841.58,611.104 6836.89,630.896 6836.89,656.156C6836.89,668.396 6838.06,679.333 6840.41,688.969C6842.75,698.604 6846.1,706.742 6850.47,713.383C6854.83,720.023 6860.2,725.101 6866.58,728.617C6872.96,732.133 6880.25,733.89 6888.45,733.89C6902.52,733.89 6916.64,727.38 6930.84,714.359Z" style="fill-rule:nonzero;"/>
                    </g>
                    <g transform="matrix(1,0,0,1,-2117.33,789.036)">
                        <path d="M7149.98,704.789C7149.98,737.341 7140.99,763.252 7123.02,782.523C7105.06,801.794 7080.97,811.43 7050.76,811.43C7021.07,811.43 6997.44,801.599 6979.86,781.937C6962.41,762.146 6953.69,735.583 6953.69,702.25C6953.69,668.917 6962.61,642.159 6980.45,621.976C6998.15,601.664 7021.66,591.508 7050.95,591.508C7081.81,591.508 7106.03,601.599 7123.61,621.781C7141.19,641.963 7149.98,669.633 7149.98,704.789ZM7074,702.25C7074,694.437 7073.48,687.374 7072.44,681.058C7071.4,674.743 7069.9,669.34 7067.95,664.848C7065.99,660.355 7063.65,656.872 7060.91,654.398C7058.18,651.924 7055.12,650.687 7051.74,650.687C7045.1,650.687 7039.76,655.375 7035.72,664.75C7031.68,672.953 7029.66,685.258 7029.66,701.664C7029.66,717.81 7031.68,730.114 7035.72,738.578C7039.76,747.953 7045.16,752.64 7051.93,752.64C7058.31,752.64 7063.58,748.018 7067.75,738.773C7071.92,728.487 7074,716.312 7074,702.25Z" style="fill-rule:nonzero;"/>
                    </g>
                    <g transform="matrix(1,0,0,1,-2117.33,789.036)">
                        <rect x="7180.25" y="477.25" width="78.32" height="329.883" style="fill-rule:nonzero;"/>
                    </g>
                    <g transform="matrix(1,0,0,1,-2117.33,789.036)">
                        <rect x="7294.7" y="596" width="78.516" height="211.133" style="fill-rule:nonzero;"/>
                    </g>
                    <g transform="matrix(1,0,0,1,-2117.33,789.036)">
                        <path d="M7705.06,807.133L7626.74,807.133L7626.74,687.601C7626.74,674.19 7622.76,667.484 7614.82,667.484C7602.97,667.484 7597.05,678.422 7597.05,700.297L7597.05,807.133L7518.73,807.133L7518.73,690.531C7518.73,676.208 7514.3,669.047 7505.45,669.047C7499.07,669.047 7494.54,671.488 7491.87,676.371C7489.2,681.254 7487.87,689.815 7487.87,702.055L7487.87,807.133L7409.55,807.133L7409.55,596L7487.87,596L7487.87,606.937C7487.87,615.531 7487.48,623.604 7486.7,631.156C7500.63,604.724 7518.79,591.508 7541.19,591.508C7566.32,591.508 7584.94,606.091 7597.05,635.258C7607.6,606.091 7625.04,591.508 7649.39,591.508C7667.75,591.508 7682.07,598.213 7692.36,611.625C7700.82,622.823 7705.06,639.685 7705.06,662.211L7705.06,807.133Z" style="fill-rule:nonzero;"/>
                    </g>
                    <g transform="matrix(1,0,0,1,-2117.33,789.036)">
                        <path d="M7929.86,807.133L7851.35,807.133C7852,800.101 7852.52,793.396 7852.91,787.015C7853.3,780.635 7853.69,775.492 7854.08,771.586C7840.54,798.148 7822.37,811.43 7799.59,811.43C7779.8,811.43 7764.11,801.534 7752.52,781.742C7741.06,762.081 7735.33,734.867 7735.33,700.101C7735.33,666.508 7741.25,640.075 7753.1,620.805C7764.95,601.273 7781.1,591.508 7801.54,591.508C7822.5,591.508 7839.43,604.138 7852.32,629.398C7852.06,626.794 7851.86,624.515 7851.74,622.562C7851.61,620.609 7851.48,618.982 7851.35,617.68L7850.56,605.375L7849.98,596L7929.86,596L7929.86,807.133ZM7850.56,698.93C7850.56,691.117 7850.27,684.476 7849.69,679.008C7849.1,673.539 7848.15,669.079 7846.85,665.629C7845.55,662.178 7843.86,659.704 7841.77,658.207C7839.69,656.709 7837.15,655.961 7834.16,655.961C7820.88,655.961 7814.24,673.604 7814.24,708.89C7814.24,734.151 7820.16,746.781 7832.01,746.781C7844.38,746.781 7850.56,730.831 7850.56,698.93Z" style="fill-rule:nonzero;"/>
                    </g>
                    <g id="Dot" transform="matrix(1.51466,0,0,1.51466,-4247.11,-1456.21)">
                        <circle cx="6247.41" cy="1832.91" r="31.418" style="fill:rgb(169,207,55);"/>
                    </g>
                </g>
            </g>
        </g>
    </g>
</svg>
