<svg width="2000" height="1133" viewBox="0 0 2000 1133" fill="none" xmlns="http://www.w3.org/2000/svg">
    <path d="M777.529 448.335C788.86 459.155 1021.43 566.503 1021.43 566.503L772 676.575" stroke="black" stroke-width="64.252" stroke-linecap="round" stroke-linejoin="round"/>
    <path d="M596.059 522.154C600.114 490.938 619.422 468.294 641.913 468.377C664.404 468.46 683.628 491.248 687.567 522.494" stroke="black" stroke-width="28.3465" stroke-linecap="round" stroke-linejoin="round"/>
    <path d="M773.103 676.601C718.593 798.58 588.898 866.976 462.166 840.575C335.435 814.174 246.282 700.187 248.428 567.3C250.575 434.412 343.435 318.919 471.053 290.414C598.672 261.909 726.192 328.178 776.775 449.288" stroke="black" stroke-width="64.252" stroke-linecap="round" stroke-linejoin="round"/>
    <path d="M1166.43 655V472.696H1285.66V502.936H1204.16V546.136H1272.13V576.376H1204.16V655H1166.43ZM1344.75 524.248V655H1308.18V524.248H1344.75ZM1303.86 490.84C1303.86 484.696 1305.97 479.416 1310.19 475C1314.61 470.392 1319.79 468.088 1325.74 468.088C1332.08 468.088 1337.46 470.296 1341.87 474.712C1346.48 479.128 1348.78 484.504 1348.78 490.84C1348.78 497.56 1346.58 503.032 1342.16 507.256C1337.94 511.48 1332.46 513.592 1325.74 513.592C1319.41 513.592 1314.13 511.48 1309.9 507.256C1305.87 502.84 1303.86 497.368 1303.86 490.84ZM1417.31 536.92C1421.15 532.504 1426.91 528.76 1434.59 525.688C1442.27 522.424 1449.57 520.792 1456.48 520.792C1472.99 520.792 1484.9 525.304 1492.19 534.328C1499.68 543.352 1503.43 557.944 1503.43 578.104V655H1466.85V579.544C1466.85 560.728 1458.5 551.32 1441.79 551.32C1437.57 551.32 1433.06 552.28 1428.26 554.2C1423.46 555.928 1420.19 557.944 1418.47 560.248V655H1382.18V524.248H1412.99C1413.95 529.24 1414.91 533.464 1415.87 536.92H1417.31ZM1650.81 638.296C1637.18 651.736 1621.05 658.456 1602.43 658.456C1580.16 658.456 1562.49 651.352 1549.44 637.144C1538.11 624.664 1532.44 609.016 1532.44 590.2C1532.44 569.08 1539.74 551.8 1554.33 538.36C1567 526.648 1582.46 520.792 1600.7 520.792C1620.86 520.792 1637.08 527.128 1649.37 539.8L1638.43 559.384C1628.64 550.744 1617.98 546.424 1606.46 546.424C1595.71 546.424 1586.88 550.648 1579.96 559.096C1573.05 567.352 1569.6 578.008 1569.6 591.064C1569.6 603.16 1572.96 613.144 1579.68 621.016C1586.59 628.696 1595.32 632.536 1605.88 632.536C1618.56 632.536 1629.4 627.832 1638.43 618.424L1650.81 638.296ZM1678.33 489.112L1714.62 469.24V539.8C1717.69 533.848 1724.03 528.76 1733.63 524.536C1739.97 521.848 1745.92 520.504 1751.49 520.504C1768.19 520.504 1780.29 525.112 1787.77 534.328C1795.45 543.352 1799.29 557.944 1799.29 578.104V655H1763.01V579.544C1763.01 560.728 1754.94 551.32 1738.81 551.32C1727.1 551.32 1719.04 554.584 1714.62 561.112V655H1678.33V489.112Z" fill="black"/>
</svg>