<?xml version="1.0" encoding="utf-8"?>
<!-- Generator: Adobe Illustrator 25.2.0, SVG Export Plug-In . SVG Version: 6.00 Build 0)  -->
<svg version="1.1" id="Layer_1" xmlns="http://www.w3.org/2000/svg" xmlns:xlink="http://www.w3.org/1999/xlink" x="0px" y="0px"
     viewBox="0 0 880.0772095 165" style="enable-background:new 0 0 880.0772095 165;" xml:space="preserve">
<style type="text/css">
	.st0{fill:#A453B9;}
	.st1{fill:rgb(0, 117, 168);}
	.st2{fill:rgb(89, 89, 91);}
	.st3{fill:#D13306;}
	.st4{fill:#004D93;}
	.st5{fill:#0081BE;}
	.st6{fill:#1167F1;}
	.st7{fill:#FFC400;}
	.st8{fill:#FF7A3D;}
	.st9{fill:#00A580;}
	.st10{fill:#53C3D0;}
	.st11{fill:#671C4C;}
	.st12{fill:#00E3C2;}
	.st13{fill:#BC2A46;}
	.st14{fill:#FF192E;}
	.st15{fill:#00B056;}
  @media screen and (prefers-color-scheme: dark) {
    .st2{fill:rgb(89, 89, 91);}
  }
</style>
    <g>
	<g>
		<g>
			<g>
				<rect x="39.3808594" y="112.078125" class="st1" width="121.2382812" height="15"/>
                <path class="st1" d="M142.1450195,55.7060547c0-9.6494141-7.8505859-17.5-17.5-17.5H75.8999023
					c-9.6494141,0-17.5,7.8505859-17.5,17.5v46.8847656h83.7451172V55.7060547z M127.1450195,87.5908203H73.3999023V55.7060547
					c0-1.3554688,1.1450195-2.5,2.5-2.5h48.7451172c1.3549805,0,2.5,1.1445312,2.5,2.5V87.5908203z"/>
                <path class="st1" d="M48.4111328,74.1416016v-15h-9.0302734c-0.831543,0-1.5341797-0.7021484-1.5341797-1.5341797V37.921875h-15
					v19.6855469c0,9.1171875,7.4169922,16.5341797,16.5341797,16.5341797H48.4111328z"/>
                <path class="st1" d="M162.1533203,37.921875v19.6855469c0,0.8320312-0.7026367,1.5341797-1.5341797,1.5341797h-8.4853516v15
					h8.4853516c9.1171875,0,16.5341797-7.4169922,16.5341797-16.5341797V37.921875H162.1533203z"/>
			</g>
		</g>
	</g>
        <g>
		<path class="st2" d="M230.5098114,57.1935883h20.8486328c9.8994293,0,16.574234,4.7998047,16.574234,14.0996094
			c0,7.5742188-5.1748047,12.1494141-10.1992188,13.7246094c1.5,1.2744141,2.625,3,3.5244141,4.7998047
			c2.1005859,4.2744141,3.5253906,8.9990234,7.9501953,8.9990234c1.125,0,2.0244141-0.375,2.0244141-0.375l-0.9746094,8.9248047
			c0,0-2.7001953,0.6748047-5.0244141,0.6748047c-6,0-9.4502106-2.3242188-12.9746246-10.3496094
			c-1.5-3.5996094-3.6005859-9.8994141-6.375-9.8994141h-2.8496094v20.0244141h-12.5244141V57.1935883z M243.0342255,66.2687836
			v12.4492188h4.4990234c3.6005859,0,7.7998047-1.125,7.7998047-6.5253906c0-4.4248047-2.8496094-5.9238281-6.2998047-5.9238281
			H243.0342255z"/>
            <path class="st2" d="M289.0088501,57.1935883h12.6738281l17.0996094,50.6230469h-12.6748047l-3.1494141-9.5996094h-16.9492188
			l-3.0751953,9.5996094H271.984436L289.0088501,57.1935883z M289.0088501,88.9172211h10.8740234l-3.4492188-10.6494141
			c-1.2001953-3.5996094-1.7255859-8.6992188-1.7255859-8.6992188h-0.2998047c0,0-0.75,5.1748047-1.875,8.6240234
			L289.0088501,88.9172211z"/>
            <path class="st2" d="M323.4336548,57.1935883h13.4238281l13.2744141,25.1240234c1.125,2.1748047,2.625,6,3.8251953,9h0.2998047
			c-0.1494141-2.8505859-0.5244141-6.9003906-0.5244141-9.8251953V57.1935883h10.2744141v50.6230469h-13.125L337.0830688,82.767807
			c-1.2753906-2.25-2.625-5.5498047-3.6748047-8.25h-0.3007812c0.2255859,2.8496094,0.6005859,6.2246094,0.6005859,9v24.2988281
			h-10.2744141V57.1935883z"/>
            <path class="st2" d="M370.8330688,82.1672211c0-18.2988281,9.0742188-25.8730469,23.0986328-25.8730469
			c14.7744141,0,20.6992188,8.0996094,19.0498047,19.0488281L401.281311,76.392807
			c1.2753906-8.0244141-1.8740234-11.2490234-7.5742188-11.2490234c-5.4746094,0-9.8994141,4.0498047-9.8994141,17.0986328
			c0,13.7998047,4.7998047,17.3242188,10.2744141,17.3242188c5.1748047,0,9.375-3.2246094,8.4746094-9.8242188l10.9492188,1.125
			c0.8251953,10.2744141-6.5996094,17.8496094-20.0986328,17.8496094
			C379.6826782,108.7170258,370.8330688,100.6164398,370.8330688,82.1672211z"/>
            <path class="st2" d="M420.1836548,57.1935883h12.5244141v19.1240234h15.3740234V57.1935883h12.5244141v50.6230469h-12.5244141
			V86.3674164h-15.3740234v21.4492188h-12.5244141V57.1935883z"/>
            <path class="st2" d="M469.7578735,57.1935883h33.5234375v9.2998047h-20.9990234v10.8740234h17.6240234v9.2998047h-17.6240234
			v11.8496094h21.7490234v9.2998047h-34.2734375V57.1935883z"/>
            <path class="st2" d="M510.5576782,57.1935883h20.8486328c9.8994141,0,16.5742188,4.7998047,16.5742188,14.0996094
			c0,7.5742188-5.1748047,12.1494141-10.1992188,13.7246094c1.5,1.2744141,2.625,3,3.5244141,4.7998047
			c2.1005859,4.2744141,3.5253906,8.9990234,7.9501953,8.9990234c1.125,0,2.0244141-0.375,2.0244141-0.375l-0.9746094,8.9248047
			c0,0-2.7001953,0.6748047-5.0244141,0.6748047c-6,0-9.4501953-2.3242188-12.9746094-10.3496094
			c-1.5-3.5996094-3.6005859-9.8994141-6.375-9.8994141h-2.8496094v20.0244141h-12.5244141V57.1935883z M523.0820923,66.2687836
			v12.4492188h4.5c3.5996094,0,7.7988281-1.125,7.7988281-6.5253906c0-4.4248047-2.8496094-5.9238281-6.2998047-5.9238281
			H523.0820923z"/>
            <path class="st2" d="M570.5567017,57.1935883h19.3486328c12.5996094,0,22.3496094,7.3496094,22.3496094,25.0488281
			c0,17.3242188-9.2998047,25.5742188-22.3496094,25.5742188h-19.3486328V57.1935883z M588.7051392,98.7424164
			c5.5498047,0,10.875-3.375,10.875-16.5c0-13.0488281-5.3251953-15.9736328-10.875-15.9736328h-5.6240234v32.4736328H588.7051392z"
            />
            <path class="st2" d="M619.156311,57.1935883h33.5234375v9.2998047h-20.9990234v10.8740234h17.6240234v9.2998047h-17.6240234
			v11.8496094h21.7490234v9.2998047H619.156311V57.1935883z"/>
            <path class="st2" d="M668.3555298,91.1672211c-0.9003906,4.0498047,0.6748047,8.7001953,8.625,8.7001953
			c5.2490234,0,7.0488281-2.1005859,7.0488281-4.875c0-4.2001953-4.1992188-5.25-9.1494141-7.0498047
			c-7.4248047-2.5498047-16.5742188-6.1503906-16.5742188-16.7246094c0-9.4492188,7.2744141-15.2246094,19.6494141-14.9238281
			c15.1494141,0.2998047,19.4238281,9.2246094,17.7744141,16.9492188l-11.4746094,1.0498047
			c0.75-5.8496094-1.3505859-9.1494141-7.2744141-9.1494141c-3.9755859,0-6.2255859,1.5-6.2255859,4.6494141
			c0,4.2001953,4.0498047,5.4746094,9,7.1992188c7.6494141,2.5507812,16.7246094,5.625,16.7246094,16.125
			c0,9.0742188-6.75,15.5996094-19.9492188,15.5996094c-12.375,0-20.8496094-5.7001953-19.1240234-16.5L668.3555298,91.1672211z"/>
            <path class="st2" d="M703.3809204,57.1935883h12.5244141v14.1748047c0,1.5742188-0.2255859,3.8994141-0.375,5.6240234h0.2998047
			c0.8251953-1.2744141,1.875-3.2246094,3.1494141-4.7246094l12.375-15.0742188h13.4990234l-16.4990234,19.8740234
			l17.3994141,30.7490234h-14.3994141l-11.6992188-21.2246094l-3.75,4.5751953v16.6494141h-12.5244141V57.1935883z"/>
            <path class="st2" d="M745.9053345,57.1935883h40.4228516v9.2998047h-14.0986328v41.3232422h-12.5244141V66.4933929h-13.7998047
			V57.1935883z"/>
            <path class="st2" d="M788.5791626,81.7922211c0-18.2236328,9.6748047-25.4980469,23.2490234-25.4980469
			c13.3496094,0,23.0244141,7.2744141,23.0244141,25.4980469c0,20.25-9.9746094,26.9248047-23.0244141,26.9248047
			C798.2539673,108.7170258,788.5791626,101.4416351,788.5791626,81.7922211z M822.0274048,81.7922211
			c0-12.5986328-4.9492188-16.6484375-10.3496094-16.6484375c-5.3994141,0-10.2744141,4.0498047-10.2744141,16.6484375
			c0,14.0253906,4.875,18.0751953,10.2744141,18.0751953C817.078186,99.8674164,822.0274048,95.8176117,822.0274048,81.7922211z"/>
            <path class="st2" d="M841.678772,57.1935883h21.2236328c9.9746094,0,17.1748047,5.0244141,17.1748047,15.1494141
			c0,11.0244141-6.9755859,17.3994141-17.1748047,17.3994141h-8.6992188v18.0742188H841.678772V57.1935883z M854.203186,66.2687836
			v14.3994141h5.8496094c3.8994141,0,7.4248047-2.1005859,7.4248047-7.5751953c0-5.1748047-3.5253906-6.8242188-7.4248047-6.8242188
			H854.203186z"/>
	</g>
</g>
</svg>